<?xml version="1.0" encoding="iso-8859-1"?>
<!-- Uploaded to: SVG Repo, www.svgrepo.com, Generator: SVG Repo Mixer Tools -->
<svg version="1.1" id="Layer_1" xmlns="http://www.w3.org/2000/svg" xmlns:xlink="http://www.w3.org/1999/xlink" 
	 viewBox="0 0 512 512" xml:space="preserve">
<path style="fill:#EBEBEC;" d="M273.067,0h-204.8C44.74,0,25.6,19.14,25.6,42.667v426.667C25.6,492.86,44.74,512,68.267,512h204.8
	c23.526,0,42.667-19.14,42.667-42.667V42.667C315.733,19.14,296.593,0,273.067,0z"/>
<path style="fill:#D7D8D9;" d="M51.2,469.333V42.667C51.2,19.14,70.34,0,93.867,0h-25.6C44.74,0,25.6,19.14,25.6,42.667v426.667
	C25.6,492.86,44.74,512,68.267,512h25.6C70.34,512,51.2,492.86,51.2,469.333z"/>
<g>
	<path style="fill:#F58F6C;" d="M25.6,469.333C25.6,492.86,44.74,512,68.267,512h204.8c23.526,0,42.667-19.14,42.667-42.667v-25.6
		H25.6V469.333z"/>
	<path style="fill:#F58F6C;" d="M273.067,0h-204.8C44.74,0,25.6,19.14,25.6,42.667v25.6h290.133v-25.6
		C315.733,19.14,296.593,0,273.067,0z"/>
</g>
<g>
	<path style="fill:#F07B52;" d="M51.2,469.333v-25.6H25.6v25.6C25.6,492.86,44.74,512,68.267,512h25.6
		C70.34,512,51.2,492.86,51.2,469.333z"/>
	<path style="fill:#F07B52;" d="M93.867,0h-25.6C44.74,0,25.6,19.14,25.6,42.667v25.6h25.6v-25.6C51.2,19.14,70.34,0,93.867,0z"/>
</g>
<g>
	<path style="fill:#D45740;" d="M170.667,42.667c-3.531,0-6.786-2.266-8.004-5.58c-1.213-3.3-0.235-7.165,2.461-9.444
		c2.789-2.358,6.879-2.692,10-0.783c3.011,1.842,4.605,5.475,3.907,8.938C178.235,39.738,174.7,42.667,170.667,42.667z"/>
	<path style="fill:#D45740;" d="M204.8,42.667c-3.531,0-6.786-2.266-8.004-5.58c-1.213-3.3-0.235-7.165,2.461-9.444
		c2.789-2.358,6.879-2.692,10-0.783c3.011,1.842,4.605,5.475,3.907,8.938C212.368,39.738,208.833,42.667,204.8,42.667z"/>
	<path style="fill:#D45740;" d="M136.533,42.667c-3.531,0-6.786-2.266-8.004-5.58c-1.213-3.3-0.235-7.165,2.461-9.444
		c2.789-2.358,6.879-2.692,10-0.783c3.011,1.842,4.605,5.475,3.907,8.938C144.101,39.738,140.566,42.667,136.533,42.667z"/>
	<path style="fill:#D45740;" d="M187.733,486.4H153.6c-4.713,0-8.533-3.821-8.533-8.533c0-4.713,3.821-8.533,8.533-8.533h34.133
		c4.713,0,8.533,3.821,8.533,8.533C196.267,482.579,192.446,486.4,187.733,486.4z"/>
</g>
<path style="fill:#C3C4C6;" d="M256,247.467H85.333c-14.115,0-25.6,11.485-25.6,25.6V384c0,14.115,11.485,25.6,25.6,25.6H256
	c14.115,0,25.6-11.485,25.6-25.6V273.067C281.6,258.951,270.115,247.467,256,247.467z"/>
<g>
	<path style="fill:#88898E;" d="M136.533,358.4H93.867c-4.713,0-8.533-3.821-8.533-8.533c0-4.713,3.821-8.533,8.533-8.533h42.667
		c4.713,0,8.533,3.821,8.533,8.533C145.067,354.579,141.246,358.4,136.533,358.4z"/>
	<path style="fill:#88898E;" d="M162.133,384H93.867c-4.713,0-8.533-3.821-8.533-8.533c0-4.713,3.821-8.533,8.533-8.533h68.267
		c4.713,0,8.533,3.821,8.533,8.533C170.667,380.179,166.846,384,162.133,384z"/>
</g>
<rect x="59.733" y="290.133" style="fill:#E5563C;" width="221.867" height="34.133"/>
<circle style="fill:#F2C127;" cx="170.667" cy="204.8" r="17.067"/>
<path id="SVGCleanerId_0" style="fill:#F2C127;" d="M206.293,153.839c-1.337,0-2.692-0.315-3.958-0.979
	c-9.852-5.171-20.507-7.793-31.668-7.793s-21.817,2.622-31.668,7.793c-4.174,2.189-9.332,0.583-11.522-3.589
	s-0.583-9.332,3.589-11.522c12.151-6.378,25.844-9.748,39.601-9.748s27.45,3.371,39.6,9.748c3.298,1.731,5.124,5.527,4.412,9.184
	C213.906,150.898,210.333,153.839,206.293,153.839z"/>
<g>
	<path style="fill:#F2C127;" d="M218.18,131.148c-1.337,0-2.692-0.315-3.958-0.979c-13.529-7.102-28.182-10.702-43.555-10.702
		s-30.027,3.6-43.555,10.702c-4.174,2.189-9.331,0.583-11.522-3.589c-2.19-4.173-0.583-9.331,3.589-11.522
		c15.776-8.281,33.58-12.657,51.488-12.657s35.712,4.377,51.487,12.657c3.298,1.731,5.124,5.527,4.412,9.184
		C225.793,128.206,222.219,131.148,218.18,131.148z"/>
	<path style="fill:#F2C127;" d="M194.416,176.515c-1.337,0-2.692-0.315-3.958-0.979c-6.157-3.231-12.815-4.869-19.791-4.869
		c-6.976,0-13.634,1.638-19.79,4.869c-4.173,2.191-9.332,0.582-11.522-3.589c-2.19-4.173-0.583-9.331,3.589-11.522
		c8.507-4.465,18.093-6.825,27.723-6.825s19.216,2.359,27.723,6.825c3.298,1.731,5.124,5.527,4.412,9.184
		C202.028,173.574,198.454,176.515,194.416,176.515z"/>
</g>
<g>
	<path id="SVGCleanerId_0_1_" style="fill:#F2C127;" d="M206.293,153.839c-1.337,0-2.692-0.315-3.958-0.979
		c-9.852-5.171-20.507-7.793-31.668-7.793s-21.817,2.622-31.668,7.793c-4.174,2.189-9.332,0.583-11.522-3.589
		s-0.583-9.332,3.589-11.522c12.151-6.378,25.844-9.748,39.601-9.748s27.45,3.371,39.6,9.748c3.298,1.731,5.124,5.527,4.412,9.184
		C213.906,150.898,210.333,153.839,206.293,153.839z"/>
</g>
<path style="fill:#74DBC9;" d="M478.302,106.708l-24.293-1.242c-11.495-0.588-52.275-8.006-80.345-22.041l-11.449-5.725
	c-2.402-1.201-5.23-1.201-7.632,0l-11.449,5.725c-28.068,14.034-68.848,21.453-80.345,22.041l-24.293,1.242
	c-4.538,0.233-8.098,3.979-8.098,8.523V250.49c0,31.754,21.889,61.595,40.252,81.037c22.212,23.518,49.574,42.857,75.071,53.055
	l9.508,3.803c1.018,0.406,2.093,0.61,3.169,0.61c1.076,0,2.153-0.204,3.169-0.61l9.508-3.803
	c25.497-10.198,52.86-29.536,75.071-53.055c18.364-19.443,40.253-49.284,40.253-81.038V115.23
	C486.4,110.687,482.841,106.94,478.302,106.708z"/>
<path style="fill:#2DB59F;" d="M355.231,360.811c-22.171-8.867-46.215-25.949-65.968-46.863C267.813,291.236,256,268.7,256,250.489
	V131.446l8.098-0.414c15.451-0.789,59.251-9.093,90.486-24.71l3.815-1.907l3.815,1.908c31.235,15.617,75.036,23.921,90.486,24.71
	l8.098,0.414V250.49c0,18.211-11.813,40.748-33.263,63.459c-19.753,20.914-43.797,37.996-65.967,46.863l-3.17,1.267L355.231,360.811
	z"/>
<path style="fill:#AFF0E8;" d="M376.533,213.155H342.4c-0.588,0-1.067-0.479-1.067-1.067v-25.6c0-0.588,0.479-1.067,1.067-1.067
	h51.2c8.836,0,16-7.164,16-16c0-8.836-7.164-16-16-16h-18.133v-9.6c0-8.836-7.164-16-16-16c-8.836,0-16,7.164-16,16v9.6H342.4
	c-18.233,0-33.067,14.834-33.067,33.067v25.6c0,18.233,14.834,33.067,33.067,33.067h34.133c0.588,0,1.067,0.479,1.067,1.067v25.6
	c0,0.588-0.479,1.067-1.067,1.067h-51.2c-8.836,0-16,7.164-16,16s7.164,16,16,16h18.133v9.6c0,8.836,7.164,16,16,16
	c8.836,0,16-7.164,16-16v-9.6h1.067c18.233,0,33.067-14.834,33.067-33.067v-25.6C409.6,227.989,394.766,213.155,376.533,213.155z"/>
</svg>